<?xml version="1.0" encoding="utf-8"?>
<!-- Generator: Adobe Illustrator 23.0.1, SVG Export Plug-In . SVG Version: 6.00 Build 0)  -->
<svg version="1.1" id="Слой_1" xmlns="http://www.w3.org/2000/svg" xmlns:xlink="http://www.w3.org/1999/xlink" x="0px" y="0px"
	 viewBox="0 0 56.69 56.69" style="enable-background:new 0 0 56.69 56.69;" xml:space="preserve">
<style type="text/css">
	.st0{fill:none;}
	.st1{fill:none;stroke:#000000;stroke-width:4;}
	.st2{fill-rule:evenodd;clip-rule:evenodd;}
</style>
<polyline class="st0" points="7,7 51,7 51,51 7,51 "/>
<path class="st1" d="M7,29C7,16.85,16.85,7,29,7s22,9.85,22,22s-9.85,22-22,22S7,41.15,7,29"/>
<path class="st2" d="M29,19.98c2.94,0,3.29,0.01,4.44,0.06c1.07,0.05,1.65,0.23,2.04,0.38c0.51,0.2,0.88,0.44,1.26,0.82
	c0.38,0.38,0.62,0.75,0.82,1.26c0.15,0.39,0.33,0.97,0.38,2.04c0.05,1.16,0.06,1.51,0.06,4.44s-0.01,3.29-0.06,4.44
	c-0.05,1.07-0.23,1.65-0.38,2.04c-0.2,0.51-0.44,0.88-0.82,1.26c-0.38,0.38-0.75,0.62-1.26,0.82c-0.39,0.15-0.97,0.33-2.04,0.38
	c-1.16,0.05-1.51,0.06-4.44,0.06s-3.29-0.01-4.44-0.06c-1.07-0.05-1.65-0.23-2.04-0.38c-0.51-0.2-0.88-0.44-1.26-0.82
	c-0.38-0.38-0.62-0.75-0.82-1.26c-0.15-0.39-0.33-0.97-0.38-2.04c-0.05-1.16-0.06-1.51-0.06-4.44s0.01-3.29,0.06-4.44
	c0.05-1.07,0.23-1.65,0.38-2.04c0.2-0.51,0.44-0.88,0.82-1.26c0.38-0.38,0.75-0.62,1.26-0.82c0.39-0.15,0.97-0.33,2.04-0.38
	C25.71,19.99,26.06,19.98,29,19.98 M29,18c-2.99,0-3.36,0.01-4.54,0.07c-1.17,0.05-1.97,0.24-2.67,0.51
	c-0.72,0.28-1.34,0.66-1.95,1.27s-0.99,1.22-1.27,1.95c-0.27,0.7-0.46,1.5-0.51,2.67C18.01,25.64,18,26.01,18,29
	s0.01,3.36,0.07,4.54c0.05,1.17,0.24,1.97,0.51,2.67c0.28,0.72,0.66,1.34,1.27,1.95s1.22,0.99,1.95,1.27
	c0.7,0.27,1.5,0.46,2.67,0.51C25.64,39.99,26.01,40,29,40s3.36-0.01,4.54-0.07c1.17-0.05,1.97-0.24,2.67-0.51
	c0.72-0.28,1.34-0.66,1.95-1.27c0.61-0.61,0.99-1.22,1.27-1.95c0.27-0.7,0.46-1.5,0.51-2.67C39.99,32.36,40,31.99,40,29
	s-0.01-3.36-0.07-4.54c-0.05-1.17-0.24-1.97-0.51-2.67c-0.28-0.72-0.66-1.34-1.27-1.95c-0.61-0.61-1.22-0.99-1.95-1.27
	c-0.7-0.27-1.5-0.46-2.67-0.51C32.36,18.01,31.99,18,29,18z M29.02,23.37c-3.12,0-5.65,2.53-5.65,5.65s2.53,5.65,5.65,5.65
	s5.65-2.53,5.65-5.65S32.14,23.37,29.02,23.37z M29.02,32.69c-2.03,0-3.67-1.64-3.67-3.67s1.64-3.67,3.67-3.67s3.67,1.64,3.67,3.67
	S31.05,32.69,29.02,32.69z M36.16,23.11c0,0.72-0.59,1.31-1.31,1.31s-1.31-0.59-1.31-1.31c0-0.72,0.59-1.31,1.31-1.31
	S36.16,22.38,36.16,23.11z"/>
</svg>
