<?xml version="1.0" encoding="utf-8"?>
<!-- Generator: Adobe Illustrator 23.0.1, SVG Export Plug-In . SVG Version: 6.00 Build 0)  -->
<svg version="1.1" id="Слой_1" xmlns="http://www.w3.org/2000/svg" xmlns:xlink="http://www.w3.org/1999/xlink" x="0px" y="0px"
	 viewBox="0 0 56.69 56.69" style="enable-background:new 0 0 56.69 56.69;" xml:space="preserve">
<style type="text/css">
	.st0{fill:none;}
	.st1{fill:none;stroke:#000000;stroke-width:4;}
	.st2{fill-rule:evenodd;clip-rule:evenodd;}
</style>
<polyline class="st0" points="7,51 7,7 51,7 "/>
<path class="st1" d="M29,51C16.85,51,7,41.15,7,29S16.85,7,29,7s22,9.85,22,22"/>
<path class="st1" d="M51,29c0,12.15-9.85,22-22,22"/>
<path class="st2" d="M37.99,18.92l-3.14,18.86c-0.04,0.24-0.17,0.42-0.39,0.55c-0.11,0.07-0.24,0.1-0.38,0.1
	c-0.09,0-0.19-0.02-0.29-0.06l-5.56-2.27l-2.97,3.62C25.1,39.91,24.9,40,24.64,40c-0.11,0-0.2-0.02-0.27-0.05
	c-0.16-0.06-0.28-0.15-0.37-0.29c-0.09-0.14-0.14-0.28-0.14-0.45v-4.28l10.61-13L21.34,33.28l-4.85-1.99
	c-0.3-0.11-0.47-0.34-0.49-0.68c-0.02-0.33,0.11-0.57,0.39-0.72l20.43-11.79c0.12-0.07,0.25-0.11,0.39-0.11
	c0.16,0,0.31,0.05,0.44,0.14C37.93,18.33,38.04,18.59,37.99,18.92z"/>
</svg>
