<?xml version="1.0" encoding="utf-8"?>
<!-- Generator: Adobe Illustrator 23.0.1, SVG Export Plug-In . SVG Version: 6.00 Build 0)  -->
<svg version="1.1" id="Слой_1" xmlns="http://www.w3.org/2000/svg" xmlns:xlink="http://www.w3.org/1999/xlink" x="0px" y="0px"
	 viewBox="0 0 56.69 56.69" style="enable-background:new 0 0 56.69 56.69;" xml:space="preserve">
<style type="text/css">
	.st0{fill:none;}
	.st1{fill:none;stroke:#000000;stroke-width:4;}
	.st2{fill-rule:evenodd;clip-rule:evenodd;}
</style>
<line class="st0" x1="7" y1="51" x2="7" y2="7"/>
<path class="st1" d="M29,51C16.85,51,7,41.15,7,29S16.85,7,29,7"/>
<path class="st1" d="M51,29c0,12.15-9.85,22-22,22"/>
<path class="st1" d="M29,7c12.15,0,22,9.85,22,22"/>
<path class="st2" d="M29.73,36.93c0,0,0.45-0.05,0.68-0.29c0.21-0.22,0.2-0.64,0.2-0.64s-0.03-1.97,0.9-2.26
	c0.92-0.29,2.09,1.9,3.34,2.74c0.94,0.64,1.66,0.5,1.66,0.5l3.34-0.05c0,0,1.75-0.11,0.92-1.45c-0.07-0.11-0.48-1-2.48-2.82
	c-2.09-1.91-1.81-1.6,0.71-4.9c1.54-2.01,2.15-3.24,1.96-3.76c-0.18-0.5-1.31-0.37-1.31-0.37l-3.76,0.02c0,0-0.28-0.04-0.49,0.08
	c-0.2,0.12-0.33,0.4-0.33,0.4s-0.59,1.55-1.39,2.88c-1.67,2.79-2.34,2.94-2.62,2.76c-0.64-0.4-0.48-1.62-0.48-2.49
	c0-2.7,0.42-3.83-0.81-4.12c-0.41-0.1-0.71-0.16-1.75-0.17c-1.34-0.01-2.48,0-3.12,0.31c-0.43,0.21-0.76,0.66-0.56,0.69
	c0.25,0.03,0.81,0.15,1.11,0.55c0.39,0.51,0.37,1.67,0.37,1.67s0.22,3.18-0.52,3.58c-0.51,0.27-1.2-0.28-2.69-2.81
	c-0.76-1.3-1.34-2.73-1.34-2.73s-0.11-0.27-0.31-0.41c-0.24-0.17-0.58-0.23-0.58-0.23l-3.57,0.02c0,0-0.54,0.01-0.73,0.24
	c-0.17,0.2-0.01,0.62-0.01,0.62s2.8,6.42,5.96,9.66c2.9,2.97,6.2,2.77,6.2,2.77H29.73z"/>
</svg>
